# xmcd
#
# Track frame offsets:
#	150
#	16359
#	30891
#	46409
#	60382
#	75689
#	91008
#	106590
#	121266
#	136666
#	151595
#	165181
#	179789
#	194331
#	209383
#	224175
#	238924
#	254751
#	269362
#	284145
#
# Disc length: 3974 seconds
#
# Revision: 0
# Processed by: cddbd v1.5.2PL0 Copyright (c) Steve Scherf et al.
# Submitted via: EasyCDDAExtractor 16.0.6.1
#
DISCID=160f8414
DTITLE=Συλλογικός δίσκος - Τα ρεμπέτικα Γ 1937-1960 17 Β
DYEAR=2010
DGENRE=Ρεμπέτικη
TTITLE0=Χασκίλ Στέλλα - Νύχτωσε χωρίς φεγγάρι [ζεϊμπ. Α. Καλδάρας, Αθ 4.1947]
TTITLE1=Τσαουσάκης Πρόδρομος-Τσιτσάνης Βασίλης - Για μιά κόρη ξελογιάστρα [ζεϊ
TTITLE1=μπ. Β. Τσιτσάνης, Αθ 6.10.1947]
TTITLE2=Χασκίλ Στέλλα - Μέσ' στη χασάπικη αγορά [χασ. Μ. Βαμβακάρης, Αθ 1947]
TTITLE3=Παγιουμτζής Στράτος-Τσιτσάνης Βασίλης - Όλα για σένα κούκλα μου [χασ. 
TTITLE3=Σ. Παγιουμτζής, Αθ 1947]
TTITLE4=Τσαουσάκης Πρόδρομος-Γεωργακοπούλου Ιωάννα - Χωρίσαμ' ένα δειλινό [ζεϊ
TTITLE4=μπ. Β. Τσιτσάνης, Αθ 8.1947]
TTITLE5=Ντούο Χάρμα - Ο εργάτης [ζεϊμπ. Α. Καλδάρας-Μ. Μάτσας, Αθ 1948]
TTITLE6=Σωφρονίου Έλλη - Αρχόντισσα [λ.καντ.χασ. Σ.Περιστέρης-Γ.Μπάτης, Αθ 194
TTITLE6=8]
TTITLE7=Μπέλλου Σωτηρία-Τσιτσάνης Βασίλης - Όταν πίνεις στην ταβέρνα [χασ. Β. 
TTITLE7=Τσιτσάνης, Αθ 11.1947]
TTITLE8=Χασκίλ Στέλλα-Κυριαζής Γιάννης - Παραστρατημένη [χασ. Α. Καλδάρας, Αθή
TTITLE8=να 1947]
TTITLE9=Τσαουσάκης Πρόδρομος - Το ρημαγμένο σπίτι [ζεϊμπ. Β. Τσιτσάνης, Αθήνα 
TTITLE9=10.1947]
TTITLE10=Χασκίλ Στέλλα-Βαμβακάρης Μάρκος-Τσιτσάνης Β. - Κάποια μάννα αναστενάζ
TTITLE10=ει[ζ. Β.Τσιτσάνης-Μ.Μπακάλης,Αθ1947ή48]
TTITLE11=Ντούο Χάρμα - Η ξενητειά [ζεϊμπ. Α. Καλδάρας, Αθήνα 1948]
TTITLE12=Περπινιάδης Στελλάκης-Τσιτσάνης Βασίλης - Αμαρτωλή [χασ. Β. Τστσάνης,
TTITLE12=Αθήνα 6.10.1947]
TTITLE13=Χασκίλ Στέλλα - Ζηλεύει όποιος αγαπά[ζεϊμπ.Σ.Καλφόπουλος-Χ.Βασιλειάδη
TTITLE13=ς,Αθ1947]
TTITLE14=Ντούο Χάρμα-Καλδάρας Απόστολος - Σκλάβες του μαχαραγιά [ισπ.τρ.Α.Καλδ
TTITLE14=άρας-Σ.Περιστέρης,Αθ1948]
TTITLE15=Παγιουμτζής Στράτος-Τσιτσάνης Βασίλης - Όταν στα κέντρα σε πηγαίνω [χ
TTITLE15=ασ. Β. Τσιτσάνης, Αθ 20.3.1947]
TTITLE16=Περδικόπουλος Δημήτρης-Μανησαλής Γιώργος - Το γλυκοχάραγμα [βαλς, Σ.Π
TTITLE16=εριστέρης-Ζακ Ιακωβίδης, Αθ 1947]
TTITLE17=Παγιουμτζής Στράτος-Χάρμα Λίτσα - Πάνω σ' ένα βράχο ζεϊμπ. Α. Καλδάρα
TTITLE17=ς, Αθήνα 1948]
TTITLE18=Βαμβακάρης Μάρκος - Μπουζούκι γλέντι του ντουνιά [ζεϊμπ. Μ. Βαμβακάρη
TTITLE18=ς, Αθ 1947]
TTITLE19=Μοσχονάς Οδυσσέας - Πέντε Έλληνες στον Άδη [Γ.Παπαϊωάννου-Κ.Μάνεσης,Α
TTITLE19=θ5.1947]
EXTD=
EXTT0=
EXTT1=
EXTT2=
EXTT3=
EXTT4=
EXTT5=
EXTT6=
EXTT7=
EXTT8=
EXTT9=
EXTT10=
EXTT11=
EXTT12=
EXTT13=
EXTT14=
EXTT15=
EXTT16=
EXTT17=
EXTT18=
EXTT19=
PLAYORDER=
